#N canvas 3 81 1905 996 16;
#X msg 480 88 stop;
#X msg 114 177 play;
#X msg 148 115 segment 0 2.4;
#X obj 81 85 t b b b;
#X msg 81 245 segment 2.4 4.8;
#X msg 98 768 segment 2.4 4.8;
#X msg 185 706 segment 7.2 9.6;
#X msg 272 645 segment 16.8 9.6;
#X obj 98 389 moses 0.1;
#X obj 185 420 moses 0.4;
#X obj 272 451 moses 0.6;
#X msg 359 584 segment 2.4 4.8;
#X obj 742 117 r \$0-sequence-action;
#X obj 359 612 s \$0-sequence-action;
#X obj 272 673 s \$0-sequence-action;
#X obj 185 734 s \$0-sequence-action;
#X obj 98 796 s \$0-sequence-action;
#X obj 148 143 s \$0-sequence-action;
#X obj 114 205 s \$0-sequence-action;
#X obj 81 273 s \$0-sequence-action;
#X obj 704 441 r \$0-sequence-action;
#X obj 480 116 s \$0-sequence-action;
#X obj 1289 626 +~;
#X obj 1315 578 +~;
#X obj 1343 407 r \$0-sequence-action;
#X obj 1316 227 r \$0-sequence-action;
#X obj 1288 57 r \$0-sequence-action;
#X obj 359 491 moses 0.7;
#X msg 446 522 segment 26.4 9.6;
#X obj 446 550 s \$0-sequence-action;
#X obj 741 346 openda_bus;
#X obj 81 40 openda_parameter \$0 start;
#X obj 480 36 openda_parameter \$0 stop;
#X obj 98 335 openda_parameter \$0 progress;
#X obj 835 607 openda_parameter \$0 mario_size;
#X obj 1422 583 openda_parameter \$0 enemy_count;
#X obj 742 161 openda_sample sounds/overworld-remix/1_SoftPiano.ogg
;
#X obj 704 483 openda_sample sounds/overworld-remix/2_Bass.ogg;
#X obj 703 693 openda_bus;
#X obj 1288 98 openda_sample sounds/overworld-remix/3_Mid.ogg;
#X obj 1316 273 openda_sample sounds/overworld-remix/4_High.ogg;
#X obj 1343 450 openda_sample sounds/overworld-remix/5_Low.pgg;
#X obj 1290 716 openda_bus;
#X obj 873 274 loadbang;
#X msg 873 302 0.5;
#X obj 431 182 loadbang;
#X obj 431 219 t b b;
#X msg 431 307 0;
#X obj 431 335 s \$0-bass-volume;
#X msg 478 251 0;
#X obj 478 279 s \$0-percussion-volume;
#X obj 1422 652 / 5;
#X obj 835 651 / 6;
#X connect 0 0 21 0;
#X connect 1 0 18 0;
#X connect 2 0 17 0;
#X connect 3 0 4 0;
#X connect 3 1 1 0;
#X connect 3 2 2 0;
#X connect 4 0 19 0;
#X connect 5 0 16 0;
#X connect 6 0 15 0;
#X connect 7 0 14 0;
#X connect 8 0 5 0;
#X connect 8 1 9 0;
#X connect 9 0 6 0;
#X connect 9 1 10 0;
#X connect 10 0 7 0;
#X connect 10 1 27 0;
#X connect 11 0 13 0;
#X connect 12 0 36 0;
#X connect 20 0 37 0;
#X connect 22 0 42 0;
#X connect 23 0 22 1;
#X connect 24 0 41 0;
#X connect 25 0 40 0;
#X connect 26 0 39 0;
#X connect 27 0 11 0;
#X connect 27 1 28 0;
#X connect 28 0 29 0;
#X connect 31 0 3 0;
#X connect 32 0 0 0;
#X connect 33 0 8 0;
#X connect 34 0 52 0;
#X connect 35 0 51 0;
#X connect 36 0 30 0;
#X connect 37 0 38 0;
#X connect 39 0 22 0;
#X connect 40 0 23 0;
#X connect 41 0 23 1;
#X connect 43 0 44 0;
#X connect 44 0 30 1;
#X connect 45 0 46 0;
#X connect 46 0 47 0;
#X connect 46 1 49 0;
#X connect 47 0 48 0;
#X connect 49 0 50 0;
#X connect 51 0 42 1;
#X connect 52 0 38 1;
