#N canvas 231 247 1162 693 16;
#X obj 54 74 r \$0-command;
#X obj 737 335 oda_panel \$0;
#X msg 136 360 stop;
#X msg 87 534 play;
#X obj 738 165 oda_sound sounds/overworld-remix.ogg;
#X obj 54 126 route start stop progress;
#X msg 121 472 segment 0 2.4;
#X msg 305 226 segment 12 9.6;
#X obj 54 422 t b b b;
#X obj 738 124 r \$0-sound-action;
#X obj 121 500 s \$0-sound-action;
#X obj 87 562 s \$0-sound-action;
#X msg 54 602 segment 2.4 4.8;
#X obj 54 630 s \$0-sound-action;
#X msg 218 291 segment 2.4 4.8;
#X obj 218 319 s \$0-sound-action;
#X obj 305 254 s \$0-sound-action;
#X obj 136 388 s \$0-sound-action;
#X obj 218 192 moses 0.2;
#X connect 0 0 5 0;
#X connect 2 0 17 0;
#X connect 3 0 11 0;
#X connect 4 0 1 0;
#X connect 5 0 8 0;
#X connect 5 1 2 0;
#X connect 5 2 18 0;
#X connect 6 0 10 0;
#X connect 7 0 16 0;
#X connect 8 0 12 0;
#X connect 8 1 3 0;
#X connect 8 2 6 0;
#X connect 9 0 4 0;
#X connect 12 0 13 0;
#X connect 14 0 15 0;
#X connect 18 0 14 0;
#X connect 18 1 7 0;
