#N canvas 3 81 1905 996 16;
#X msg 149 720 stop;
#X msg 87 844 play;
#X msg 121 782 segment 0 2.4;
#X obj 54 752 t b b b;
#X msg 54 912 segment 2.4 4.8;
#X msg 244 691 segment 2.4 4.8;
#X msg 331 629 segment 7.2 9.6;
#X msg 418 568 segment 16.8 9.6;
#X obj 244 312 moses 0.1;
#X obj 331 343 moses 0.4;
#X obj 418 374 moses 0.6;
#X msg 505 507 segment 2.4 4.8;
#X obj 868 75 oda_sound sounds/overworld-remix/1_SoftPiano.ogg;
#X obj 894 329 oda_sound sounds/overworld-remix/2_Bass.ogg;
#X obj 869 257 *~;
#X obj 896 225 r \$0-melody-volume;
#X obj 895 511 *~;
#X obj 922 478 r \$0-bass-volume;
#X obj 868 37 r \$0-sequence-action;
#X obj 505 535 s \$0-sequence-action;
#X obj 418 596 s \$0-sequence-action;
#X obj 331 657 s \$0-sequence-action;
#X obj 244 719 s \$0-sequence-action;
#X obj 121 810 s \$0-sequence-action;
#X obj 87 872 s \$0-sequence-action;
#X obj 54 940 s \$0-sequence-action;
#X obj 894 294 r \$0-sequence-action;
#X obj 830 336 vsl 15 128 0 2 0 1 \$0-bass-volume empty Bass 0 -9 0
10 -262144 -1 -1 0 1;
#X obj 805 92 vsl 15 128 0 2 0 1 \$0-melody-volume empty Melody 0 -9
0 10 -262144 -1 -1 12700 1;
#X obj 149 748 s \$0-sequence-action;
#X obj 1408 84 oda_sound sounds/overworld-remix/3_Mid.ogg;
#X obj 1436 292 oda_sound sounds/overworld-remix/4_High.ogg;
#X obj 1464 499 oda_sound sounds/overworld-remix/5_Low.ogg;
#X obj 868 541 +~;
#X obj 1408 686 +~;
#X obj 1436 649 +~;
#X obj 868 632 +~;
#X obj 894 594 r~ \$0-percussion-audio;
#X obj 1408 808 s~ \$0-percussion-audio;
#X obj 1464 457 r \$0-sequence-action;
#X obj 1436 249 r \$0-sequence-action;
#X obj 1408 42 r \$0-sequence-action;
#X obj 1409 768 *~;
#X obj 1436 729 r \$0-percussion-volume;
#X obj 1324 530 vsl 15 128 0 2 0 1 \$0-percussion-volume empty Percussion
0 -9 0 10 -262144 -1 -1 0 1;
#X obj 446 239 s \$0-percussion-volume;
#X obj 351 271 s \$0-bass-volume;
#X obj 505 414 moses 0.7;
#X msg 592 445 segment 26.4 9.6;
#X obj 592 473 s \$0-sequence-action;
#X obj 867 712 openda_bus;
#X obj 54 19 openda_parameter \$0 start;
#X obj 149 58 openda_parameter \$0 stop;
#X obj 244 98 openda_parameter \$0 progress;
#X obj 351 142 openda_parameter \$0 mario_size;
#X obj 446 185 openda_parameter \$0 enemy_count;
#X connect 0 0 29 0;
#X connect 1 0 24 0;
#X connect 2 0 23 0;
#X connect 3 0 4 0;
#X connect 3 1 1 0;
#X connect 3 2 2 0;
#X connect 4 0 25 0;
#X connect 5 0 22 0;
#X connect 6 0 21 0;
#X connect 7 0 20 0;
#X connect 8 0 5 0;
#X connect 8 1 9 0;
#X connect 9 0 6 0;
#X connect 9 1 10 0;
#X connect 10 0 7 0;
#X connect 10 1 47 0;
#X connect 11 0 19 0;
#X connect 12 0 14 0;
#X connect 13 0 16 0;
#X connect 14 0 33 0;
#X connect 15 0 14 1;
#X connect 16 0 33 1;
#X connect 17 0 16 1;
#X connect 18 0 12 0;
#X connect 26 0 13 0;
#X connect 30 0 34 0;
#X connect 31 0 35 0;
#X connect 32 0 35 1;
#X connect 33 0 36 0;
#X connect 34 0 42 0;
#X connect 35 0 34 1;
#X connect 36 0 50 0;
#X connect 37 0 36 1;
#X connect 39 0 32 0;
#X connect 40 0 31 0;
#X connect 41 0 30 0;
#X connect 42 0 38 0;
#X connect 43 0 42 1;
#X connect 47 0 11 0;
#X connect 47 1 48 0;
#X connect 48 0 49 0;
#X connect 51 0 3 0;
#X connect 52 0 0 0;
#X connect 53 0 8 0;
#X connect 54 0 46 0;
#X connect 55 0 45 0;
