#N canvas 2481 150 1162 873 16;
#X obj 54 34 r \$0-command;
#X obj 737 335 oda_panel \$0;
#X msg 136 530 stop;
#X msg 87 654 play;
#X obj 738 165 oda_sound sounds/overworld-remix.ogg;
#X obj 54 86 route start stop progress;
#X msg 121 592 segment 0 2.4;
#X obj 54 562 t b b b;
#X obj 738 124 r \$0-sound-action;
#X obj 121 620 s \$0-sound-action;
#X obj 87 682 s \$0-sound-action;
#X msg 54 722 segment 2.4 4.8;
#X obj 54 750 s \$0-sound-action;
#X msg 218 501 segment 2.4 4.8;
#X obj 218 529 s \$0-sound-action;
#X obj 305 467 s \$0-sound-action;
#X obj 136 558 s \$0-sound-action;
#X msg 305 439 segment 7.2 9.6;
#X msg 392 378 segment 16.8 9.6;
#X obj 392 406 s \$0-sound-action;
#X obj 218 122 moses 0.1;
#X obj 305 153 moses 0.4;
#X obj 392 189 moses 0.6;
#X msg 479 317 segment 2.4 4.8;
#X obj 479 345 s \$0-sound-action;
#X connect 0 0 5 0;
#X connect 2 0 16 0;
#X connect 3 0 10 0;
#X connect 4 0 1 0;
#X connect 5 0 7 0;
#X connect 5 1 2 0;
#X connect 5 2 20 0;
#X connect 6 0 9 0;
#X connect 7 0 11 0;
#X connect 7 1 3 0;
#X connect 7 2 6 0;
#X connect 8 0 4 0;
#X connect 11 0 12 0;
#X connect 13 0 14 0;
#X connect 17 0 15 0;
#X connect 18 0 19 0;
#X connect 20 0 13 0;
#X connect 20 1 21 0;
#X connect 21 0 17 0;
#X connect 21 1 22 0;
#X connect 22 0 18 0;
#X connect 22 1 23 0;
#X connect 23 0 24 0;
