#N canvas 200 508 644 558 10;
#X obj 367 297 *~;
#X obj 381 85 inlet midi;
#X obj 381 185 mtof;
#X obj 111 296 eadsr~;
#X obj 119 190 receive attack;
#X obj 127 213 receive decay;
#X obj 135 238 receive sustain;
#X obj 144 263 receive release;
#X obj 17 47 inlet trigger;
#X obj 367 330 outlet~ signal;
#X floatatom 381 136 5 0 0 0 - - -;
#X obj 433 130 loadbang;
#X msg 111 157 start;
#X msg 49 260 stop;
#X obj 189 53 inlet dur;
#X obj 17 196 delay;
#X obj 17 111 t b b;
#X obj 17 81 bng 15 250 50 0 empty empty empty 17 7 0 10 -262144 -1
-1;
#X floatatom 43 170 5 0 0 0 - - -;
#X obj 17 229 bng 15 250 50 0 empty empty empty 17 7 0 10 -262144 -1
-1;
#X msg 433 159 64;
#X obj 271 74 loadbang;
#X msg 271 103 500;
#X obj 368 36 r~ \$1-env;
#X obj 189 131 s \$1-dur;
#X obj 43 142 r \$1-dur;
#X obj 112 326 s~ \$1-env;
#X obj 381 242 \$2;
#X connect 0 0 9 0;
#X connect 1 0 10 0;
#X connect 2 0 27 0;
#X connect 3 0 26 0;
#X connect 4 0 3 1;
#X connect 5 0 3 2;
#X connect 6 0 3 3;
#X connect 7 0 3 4;
#X connect 8 0 17 0;
#X connect 10 0 2 0;
#X connect 11 0 20 0;
#X connect 12 0 3 0;
#X connect 13 0 3 0;
#X connect 14 0 24 0;
#X connect 15 0 19 0;
#X connect 16 0 15 0;
#X connect 16 1 12 0;
#X connect 17 0 16 0;
#X connect 18 0 15 1;
#X connect 19 0 13 0;
#X connect 20 0 2 0;
#X connect 21 0 22 0;
#X connect 22 0 24 0;
#X connect 23 0 0 0;
#X connect 25 0 18 0;
#X connect 27 0 0 1;
