#N canvas 331 142 560 636 10;
#X obj 404 431 *~;
#X obj 418 369 mtof;
#X obj 404 200 eadsr~;
#X obj 412 94 receive attack;
#X obj 420 117 receive decay;
#X obj 428 142 receive sustain;
#X obj 437 167 receive release;
#X obj 39 100 inlet trigger;
#X obj 404 464 outlet~ signal;
#X floatatom 418 259 5 0 0 0 - - -;
#X msg 58 210 start;
#X msg 39 488 stop;
#X obj 39 464 delay;
#X floatatom 66 438 5 0 0 0 - - -;
#X obj 239 119 loadbang;
#X msg 239 242 500;
#X obj 239 271 s \$1-dur;
#X obj 66 260 r \$1-dur;
#X obj 418 396 \$2;
#X obj 39 129 t b b a;
#X obj 78 156 unpack f f;
#X obj 404 68 r \$1-msg;
#X obj 58 233 s \$1-msg;
#X obj 39 512 s \$1-msg;
#X obj 78 183 s \$1-dur;
#X obj 135 183 s \$1-midi;
#X obj 239 151 t b b;
#X msg 266 183 64;
#X obj 266 213 s \$1-midi;
#X obj 418 229 r \$1-midi;
#X text 373 26 Generate envelope and signal;
#X text 227 84 Initial values;
#X text 57 54 Input handlig;
#X obj 418 330 + 0;
#X obj 433 298 r pitchdiff;
#X obj 81 348 r tempo;
#X obj 66 400 *;
#X obj 66 306 / 100;
#X connect 0 0 8 0;
#X connect 1 0 18 0;
#X connect 2 0 0 0;
#X connect 3 0 2 1;
#X connect 4 0 2 2;
#X connect 5 0 2 3;
#X connect 6 0 2 4;
#X connect 7 0 19 0;
#X connect 9 0 33 0;
#X connect 10 0 22 0;
#X connect 11 0 23 0;
#X connect 12 0 11 0;
#X connect 13 0 12 1;
#X connect 14 0 26 0;
#X connect 15 0 16 0;
#X connect 17 0 37 0;
#X connect 18 0 0 1;
#X connect 19 0 12 0;
#X connect 19 1 10 0;
#X connect 19 2 20 0;
#X connect 20 0 24 0;
#X connect 20 1 25 0;
#X connect 21 0 2 0;
#X connect 26 0 15 0;
#X connect 26 1 27 0;
#X connect 27 0 28 0;
#X connect 29 0 9 0;
#X connect 33 0 1 0;
#X connect 34 0 33 1;
#X connect 35 0 36 1;
#X connect 36 0 13 0;
#X connect 37 0 36 0;
