#N canvas 918 257 943 478 10;
#X obj 45 19 inlet start;
#X obj 45 57 t b b b b;
#X obj 183 216 inlet tempo;
#X obj 118 237 * 2;
#X obj 143 346 * 3;
#X obj 79 160 delay;
#X obj 62 263 delay;
#X obj 45 388 delay;
#X floatatom 463 340 5 0 0 0 - - #0-midi-1;
#X text 405 339 Midi;
#X text 405 367 Duration;
#X floatatom 463 368 5 0 0 0 - - #0-dur-1;
#X obj 204 134 l;
#X obj 240 109 pack f f;
#X obj 285 83 r \$0-midi-1;
#X obj 240 59 r \$0-dur-1;
#X obj 204 29 r \$0-play-1;
#X obj 96 124 s \$0-play-1;
#X obj 204 159 s \$1;
#X obj 371 136 l;
#X obj 407 111 pack f f;
#X obj 371 161 s \$1;
#X obj 371 31 r \$0-play-2;
#X obj 407 61 r \$0-dur-2;
#X obj 452 85 r \$0-midi-2;
#X obj 79 216 s \$0-play-2;
#X floatatom 503 340 5 0 0 0 - - #0-midi-2;
#X floatatom 503 368 5 0 0 0 - - #0-dur-2;
#X obj 451 202 inlet melody;
#X obj 451 233 unpack f f f f f f f f;
#X obj 96 94 bng 15 250 50 0 empty empty empty 17 7 0 10 -262144 -1
-1;
#X obj 79 189 bng 15 250 50 0 empty empty empty 17 7 0 10 -262144 -1
-1;
#X obj 537 136 l;
#X obj 573 111 pack f f;
#X obj 537 161 s \$1;
#X obj 537 31 r \$0-play-3;
#X obj 573 61 r \$0-dur-3;
#X obj 618 85 r \$0-midi-3;
#X floatatom 543 340 5 0 0 0 - - #0-midi-3;
#X floatatom 543 368 5 0 0 0 - - #0-dur-3;
#X obj 62 296 bng 15 250 50 0 empty empty empty 17 7 0 10 -262144 -1
-1;
#X obj 62 327 s \$0-play-3;
#X obj 707 136 l;
#X obj 743 111 pack f f;
#X obj 707 161 s \$1;
#X obj 707 31 r \$0-play-4;
#X obj 743 61 r \$0-dur-4;
#X obj 788 85 r \$0-midi-4;
#X floatatom 583 340 5 0 0 0 - - #0-midi-4;
#X floatatom 583 368 5 0 0 0 - - #0-dur-4;
#X obj 45 415 bng 15 250 50 0 empty empty empty 17 7 0 10 -262144 -1
-1;
#X obj 45 440 s \$0-play-4;
#X connect 0 0 1 0;
#X connect 1 0 7 0;
#X connect 1 1 6 0;
#X connect 1 2 5 0;
#X connect 1 3 30 0;
#X connect 2 0 3 0;
#X connect 2 0 4 0;
#X connect 2 0 5 1;
#X connect 3 0 6 1;
#X connect 4 0 7 1;
#X connect 5 0 31 0;
#X connect 6 0 40 0;
#X connect 7 0 50 0;
#X connect 12 0 18 0;
#X connect 13 0 12 1;
#X connect 14 0 13 1;
#X connect 15 0 13 0;
#X connect 16 0 12 0;
#X connect 19 0 21 0;
#X connect 20 0 19 1;
#X connect 22 0 19 0;
#X connect 23 0 20 0;
#X connect 24 0 20 1;
#X connect 28 0 29 0;
#X connect 29 0 11 0;
#X connect 29 1 8 0;
#X connect 29 2 27 0;
#X connect 29 3 26 0;
#X connect 29 4 39 0;
#X connect 29 5 38 0;
#X connect 29 6 49 0;
#X connect 29 7 48 0;
#X connect 30 0 17 0;
#X connect 31 0 25 0;
#X connect 32 0 34 0;
#X connect 33 0 32 1;
#X connect 35 0 32 0;
#X connect 36 0 33 0;
#X connect 37 0 33 1;
#X connect 40 0 41 0;
#X connect 42 0 44 0;
#X connect 43 0 42 1;
#X connect 45 0 42 0;
#X connect 46 0 43 0;
#X connect 47 0 43 1;
#X connect 50 0 51 0;
#X coords 0 -1 1 1 250 100 1 400 300;
