#N canvas 204 115 1442 867 10;
#X declare -lib mrpeach;
#X obj 369 95 loadbang;
#X obj 130 450 phrase4 \$0-mono-1;
#X obj 110 589 phrase4 \$0-mono-2;
#X obj 91 728 phrase4 \$0-mono-3;
#X obj 373 409 r phrase-1;
#X obj 353 561 r phrase-2;
#X obj 334 699 r phrase-3;
#X obj 866 364 metro;
#X obj 893 335 * 4;
#X obj 91 271 r \$0-play;
#X obj 91 423 t b b b;
#X obj 866 194 r \$0-metro;
#N canvas 939 199 380 683 intro 0;
#X obj 36 62 inlet start;
#X obj 36 254 bng 15 250 50 0 empty empty empty 17 7 0 10 -262144 -1
-1;
#X obj 49 233 bng 15 250 50 0 empty empty empty 17 7 0 10 -262144 -1
-1;
#X obj 62 212 bng 15 250 50 0 empty empty empty 17 7 0 10 -262144 -1
-1;
#X obj 75 191 bng 15 250 50 0 empty empty empty 17 7 0 10 -262144 -1
-1;
#X obj 36 141 cycle 4;
#X msg 36 98 foo;
#X obj 75 305 t b b;
#X obj 102 364 s \$0-part;
#X msg 102 333 1;
#X obj 178 72 inlet reset;
#X msg 178 107 set 0;
#X msg 75 395 \; phrase-1 80 67 0 0 0 0 0 0 \; phrase-2 0 0 0 0 0 0
0 0 \; phrase-3 80 55 0 0 0 0 0 0;
#X msg 62 469 \; phrase-1 80 79 0 0 0 0 0 0 \; phrase-2 80 71 0 0 0
0 0 0 \; phrase-3 80 67 0 0 0 0 0 0;
#X msg 49 542 \; phrase-1 0 0 80 72 80 76 0 0 \; phrase-2 0 0 80 66
80 66 0 0 \; phrase-3 0 0 80 50 80 50 0 0;
#X msg 36 614 \; phrase-1 80 76 80 76 0 0 80 76 \; phrase-2 80 66 80
66 0 0 80 66 \; phrase-3 80 50 80 50 0 0 80 50;
#X connect 0 0 6 0;
#X connect 1 0 15 0;
#X connect 2 0 14 0;
#X connect 3 0 13 0;
#X connect 4 0 7 0;
#X connect 5 0 1 0;
#X connect 5 1 2 0;
#X connect 5 2 3 0;
#X connect 5 3 4 0;
#X connect 6 0 5 0;
#X connect 7 0 12 0;
#X connect 7 1 9 0;
#X connect 9 0 8 0;
#X connect 10 0 11 0;
#X connect 11 0 5 0;
#X coords 0 -1 1 1 80 120 1 25 160;
#X restore 893 502 pd intro;
#X obj 866 655 s \$0-play;
#X obj 866 397 t b b;
#N canvas 716 204 386 788 part-1a 0;
#X obj 36 62 inlet start;
#X obj 36 254 bng 15 250 50 0 empty empty empty 17 7 0 10 -262144 -1
-1;
#X obj 49 233 bng 15 250 50 0 empty empty empty 17 7 0 10 -262144 -1
-1;
#X obj 62 212 bng 15 250 50 0 empty empty empty 17 7 0 10 -262144 -1
-1;
#X obj 75 191 bng 15 250 50 0 empty empty empty 17 7 0 10 -262144 -1
-1;
#X obj 36 141 cycle 4;
#X msg 36 98 foo;
#X obj 75 305 t b b;
#X obj 102 364 s \$0-part;
#X msg 102 333 2;
#X obj 168 62 inlet reset;
#X msg 168 97 set 0;
#X msg 75 395 \; phrase-1 0 0 80 70 80 69 0 0 \; phrase-2 0 0 80 61
80 60 0 0 \; phrase-3 0 0 80 54 80 53 0 0;
#X msg 62 469 \; phrase-1 0 0 80 69 0 0 80 71 \; phrase-2 0 0 80 60
0 0 80 62 \; phrase-3 0 0 80 53 0 0 80 55;
#X msg 49 542 \; phrase-1 0 0 0 0 80 64 0 0 \; phrase-2 0 0 0 0 80
55 0 0 \; phrase-3 0 0 0 0 80 48 0 0;
#X msg 36 614 \; phrase-1 80 72 0 0 0 0 80 67 \; phrase-2 80 64 0 0
0 0 80 60 \; phrase-3 80 55 0 0 0 0 80 52;
#X connect 0 0 6 0;
#X connect 1 0 15 0;
#X connect 2 0 14 0;
#X connect 3 0 13 0;
#X connect 4 0 7 0;
#X connect 5 0 1 0;
#X connect 5 1 2 0;
#X connect 5 2 3 0;
#X connect 5 3 4 0;
#X connect 6 0 5 0;
#X connect 7 0 12 0;
#X connect 7 1 9 0;
#X connect 9 0 8 0;
#X connect 10 0 11 0;
#X connect 11 0 5 0;
#X coords 0 -1 1 1 80 120 1 25 160;
#X restore 1003 499 pd part-1a;
#X obj 974 409 r \$0-part;
#X msg 944 278 0;
#N canvas 264 311 557 529 synth 1;
#X obj 312 155 vsl 10 32 0 1000 0 1 attack attack a 0 -8 0 8 -262144
-1 -1 310 0;
#X obj 325 155 vsl 10 32 0 1000 0 1 decay decay d 0 -8 0 8 -262144
-1 -1 1550 0;
#X obj 338 155 vsl 10 32 0 1 0 1 sustain sustain s 0 -8 0 8 -262144
-1 -1 1550 0;
#X obj 351 155 vsl 10 32 0 1000 0 1 release release r 0 -8 0 8 -262144
-1 -1 310 0;
#X obj 233 145 loadbang;
#X obj 246 109 bng 15 250 50 0 empty empty empty 17 7 0 10 -262144
-1 -1;
#X obj 59 216 +~;
#X obj 73 154 r \$0-mono-1;
#X obj 60 92 r \$0-mono-2;
#X obj 33 28 r \$0-mono-3;
#X obj 34 249 +~;
#X obj 34 475 dac~;
#X obj 34 444 *~;
#X msg 213 203 0.1;
#X msg 290 227 \; attack 100 \; decay 500 \; sustain 0.5 \; release
100 \;;
#X obj 33 62 monophonic 3 osc~;
#X obj 73 187 monophonic 1 osc~;
#X obj 60 126 monophonic 2 osc~;
#N canvas 577 166 635 781 percussion 1;
#X obj 227 43 r drum1;
#X obj 254 130 i 0;
#X obj 227 166 +;
#X obj 227 200 t i i;
#X obj 227 86 t f b;
#X floatatom 254 231 5 0 0 0 - - -;
#X obj 72 41 r \$0-play;
#N canvas 821 681 497 310 low 0;
#X obj 57 244 outlet~ signal;
#X obj 57 179 *~;
#X obj 56 46 noise~;
#X obj 72 145 line~;
#X msg 72 116 1 \, 0 50;
#X obj 56 216 lop~ 400;
#X obj 72 79 inlet bang;
#X connect 1 0 5 0;
#X connect 2 0 1 0;
#X connect 3 0 1 1;
#X connect 4 0 3 0;
#X connect 5 0 0 0;
#X connect 6 0 4 0;
#X restore 454 291 pd low;
#X obj 439 417 outlet~ signal;
#N canvas 916 702 450 300 high 0;
#X obj 67 254 outlet~ signal;
#X obj 67 189 *~;
#X obj 66 56 noise~;
#X obj 82 155 line~;
#X msg 82 126 1 \, 0 50;
#X obj 82 89 inlet bang;
#X connect 1 0 0 0;
#X connect 2 0 1 0;
#X connect 3 0 1 1;
#X connect 4 0 3 0;
#X connect 5 0 4 0;
#X restore 438 229 pd high;
#X obj 439 352 +~;
#X obj 72 221 t b b b b;
#X obj 438 138 r \$0-drum-high;
#X obj 454 263 r \$0-drum-low;
#X obj 72 661 s \$0-drum-high;
#X obj 106 413 s \$0-drum-low;
#X obj 438 385 *~ 0.9;
#X obj 455 321 *~ 3;
#X obj 72 139 t b b;
#X obj 99 170 delay 300;
#X obj 106 381 delay 50;
#X obj 89 499 delay 100;
#X obj 72 631 delay 150;
#X obj 123 262 spigot;
#X obj 156 233 >= 2;
#X obj 123 290 s \$0-drum-low;
#X obj 72 604 spigot;
#X obj 105 578 >= 1;
#X obj 106 348 spigot;
#X obj 139 320 >= 4;
#X obj 89 528 s \$0-drum-low;
#X obj 89 469 spigot;
#X obj 122 444 >= 3;
#X connect 0 0 4 0;
#X connect 1 0 2 1;
#X connect 2 0 3 0;
#X connect 3 0 24 0;
#X connect 3 0 27 0;
#X connect 3 0 29 0;
#X connect 3 0 32 0;
#X connect 3 1 1 1;
#X connect 3 1 5 0;
#X connect 4 0 2 0;
#X connect 4 1 1 0;
#X connect 6 0 18 0;
#X connect 7 0 17 0;
#X connect 9 0 10 0;
#X connect 10 0 16 0;
#X connect 11 0 26 0;
#X connect 11 1 31 0;
#X connect 11 2 28 0;
#X connect 11 3 23 0;
#X connect 12 0 9 0;
#X connect 13 0 7 0;
#X connect 16 0 8 0;
#X connect 17 0 10 1;
#X connect 18 0 11 0;
#X connect 18 1 19 0;
#X connect 19 0 11 0;
#X connect 20 0 15 0;
#X connect 21 0 30 0;
#X connect 22 0 14 0;
#X connect 23 0 25 0;
#X connect 24 0 23 1;
#X connect 26 0 22 0;
#X connect 27 0 26 1;
#X connect 28 0 20 0;
#X connect 29 0 28 1;
#X connect 31 0 21 0;
#X connect 32 0 31 1;
#X restore 51 279 pd percussion;
#X obj 35 318 +~;
#X connect 4 0 14 0;
#X connect 4 0 13 0;
#X connect 5 0 4 0;
#X connect 6 0 10 1;
#X connect 7 0 16 0;
#X connect 8 0 17 0;
#X connect 9 0 15 0;
#X connect 10 0 19 0;
#X connect 12 0 11 1;
#X connect 12 0 11 0;
#X connect 13 0 12 1;
#X connect 15 0 10 0;
#X connect 16 0 6 1;
#X connect 17 0 6 0;
#X connect 18 0 19 1;
#X connect 19 0 12 0;
#X restore 147 23 pd synth;
#X obj 893 300 r tempo;
#X obj 396 206 s tempo;
#X obj 204 407 r tempo;
#X obj 534 430 phrase3 \$0-mono-1;
#X obj 91 344 demux 1 2;
#X obj 142 308 r \$0-phrase-type;
#X obj 495 384 t b b b;
#X obj 573 306 r tempo;
#X obj 727 404 r phrase-1;
#X obj 514 580 phrase3 \$0-mono-2;
#X obj 707 550 r phrase-2;
#X obj 369 130 t b b;
#X obj 866 226 t a b;
#X obj 971 369 s \$0-phrase-type;
#X obj 573 349 * 4;
#X obj 573 383 / 3;
#X obj 495 730 phrase3 \$0-mono-3;
#X obj 688 699 r phrase-3;
#N canvas 853 105 462 898 part-1b 0;
#X obj 36 62 inlet start;
#X obj 36 254 bng 15 250 50 0 empty empty empty 17 7 0 10 -262144 -1
-1;
#X obj 49 233 bng 15 250 50 0 empty empty empty 17 7 0 10 -262144 -1
-1;
#X obj 62 212 bng 15 250 50 0 empty empty empty 17 7 0 10 -262144 -1
-1;
#X obj 75 191 bng 15 250 50 0 empty empty empty 17 7 0 10 -262144 -1
-1;
#X obj 36 141 cycle 4;
#X msg 36 98 foo;
#X obj 49 513 t b b;
#X obj 76 565 s \$0-phrase-type;
#X obj 36 669 t b b;
#X msg 63 695 1;
#X obj 63 721 s \$0-phrase-type;
#X msg 76 539 0;
#X msg 36 744 \; phrase-1 50 67 50 76 50 79 \; phrase-2 50 60 50 67
50 71 \; phrase-3 50 52 50 60 50 64;
#X obj 75 292 t b b;
#X obj 102 351 s \$0-part;
#X msg 102 320 1;
#X obj 188 62 inlet reset;
#X msg 188 97 set 0;
#X msg 75 375 \; phrase-1 80 74 80 71 0 0 0 0 \; phrase-2 80 65 80
62 0 0 0 0 \; phrase-3 80 59 80 55 0 0 0 0;
#X msg 62 449 \; phrase-1 0 0 80 76 0 0 80 72 \; phrase-2 0 0 80 69
0 0 80 64 \; phrase-3 0 0 80 60 0 0 80 57;
#X msg 49 594 \; phrase-1 80 81 0 0 80 77 80 79 \; phrase-2 80 72 0
0 80 69 80 71 \; phrase-3 80 65 0 0 80 62 80 64;
#X connect 0 0 6 0;
#X connect 1 0 9 0;
#X connect 2 0 7 0;
#X connect 3 0 20 0;
#X connect 4 0 14 0;
#X connect 5 0 1 0;
#X connect 5 1 2 0;
#X connect 5 2 3 0;
#X connect 5 3 4 0;
#X connect 6 0 5 0;
#X connect 7 0 21 0;
#X connect 7 1 12 0;
#X connect 9 0 13 0;
#X connect 9 1 10 0;
#X connect 10 0 11 0;
#X connect 12 0 8 0;
#X connect 14 0 19 0;
#X connect 14 1 16 0;
#X connect 16 0 15 0;
#X connect 17 0 18 0;
#X connect 18 0 5 0;
#X coords 0 -1 1 1 80 120 1 25 160;
#X restore 1117 500 pd part-1b;
#X msg 396 174 150;
#X obj 893 440 demux 1 2 3;
#N canvas 963 230 657 673 osc-listener 1;
#X msg 36 559 \; pd dsp 1;
#X obj 36 53 udpreceive 1337;
#X obj 36 82 unpackOSC;
#X obj 154 207 bng 15 250 50 0 empty empty empty 17 7 0 10 -262144
-1 -1;
#X msg 94 515 \; pd dsp 0;
#X obj 154 431 s \$0-metro;
#X msg 154 403 stop;
#X obj 97 207 bng 15 250 50 0 empty empty empty 17 7 0 10 -262144 -1
-1;
#X obj 97 453 s \$0-metro;
#X obj 37 23 import mrpeach;
#X obj 36 119 routeOSC /game /level;
#X obj 36 478 routeOSC /load /quit;
#X msg 268 271 0;
#X obj 211 315 s pitchdiff;
#X msg 211 231 2;
#X obj 108 273 s drum1;
#X obj 199 483 s drum1;
#X obj 97 154 routeOSC /start /stop /pickflower /shrink /enemy;
#X obj 325 228 routeOSC /spawn /down;
#X obj 325 317 s drum1;
#X msg 325 270 1;
#X msg 386 280 -1;
#X connect 1 0 2 0;
#X connect 2 0 10 0;
#X connect 3 0 6 0;
#X connect 6 0 5 0;
#X connect 6 0 16 0;
#X connect 7 0 8 0;
#X connect 7 0 15 0;
#X connect 10 0 11 0;
#X connect 10 1 17 0;
#X connect 11 0 0 0;
#X connect 11 1 4 0;
#X connect 12 0 13 0;
#X connect 14 0 13 0;
#X connect 17 0 7 0;
#X connect 17 1 3 0;
#X connect 17 2 14 0;
#X connect 17 3 12 0;
#X connect 17 4 18 0;
#X connect 18 0 20 0;
#X connect 18 1 21 0;
#X connect 20 0 19 0;
#X connect 21 0 19 0;
#X coords 0 -1 1 1 110 50 1 80 180;
#X restore 570 145 pd osc-listener;
#X obj 944 333 t i i b;
#X connect 0 0 30 0;
#X connect 4 0 1 2;
#X connect 5 0 2 2;
#X connect 6 0 3 2;
#X connect 7 0 14 0;
#X connect 8 0 7 1;
#X connect 9 0 23 0;
#X connect 10 0 3 0;
#X connect 10 1 2 0;
#X connect 10 2 1 0;
#X connect 11 0 31 0;
#X connect 14 0 13 0;
#X connect 14 1 39 0;
#X connect 16 0 39 1;
#X connect 17 0 41 0;
#X connect 19 0 8 0;
#X connect 21 0 1 1;
#X connect 21 0 2 1;
#X connect 21 0 3 1;
#X connect 23 0 10 0;
#X connect 23 1 25 0;
#X connect 24 0 23 1;
#X connect 25 0 35 0;
#X connect 25 1 28 0;
#X connect 25 2 22 0;
#X connect 26 0 33 0;
#X connect 27 0 22 2;
#X connect 29 0 28 2;
#X connect 30 1 38 0;
#X connect 31 0 7 0;
#X connect 31 1 17 0;
#X connect 33 0 34 0;
#X connect 34 0 22 1;
#X connect 34 0 28 1;
#X connect 34 0 35 1;
#X connect 36 0 35 2;
#X connect 38 0 20 0;
#X connect 39 0 12 0;
#X connect 39 1 15 0;
#X connect 39 2 37 0;
#X connect 41 0 39 1;
#X connect 41 0 12 1;
#X connect 41 1 32 0;
#X connect 41 1 15 1;
#X connect 41 2 37 1;
