#N canvas 765 259 677 598 10;
#X declare -lib mrpeach;
#X obj 266 476 dac~;
#X msg 293 185 \; pd dsp 1;
#X msg 354 148 \; pd dsp 0;
#X obj 282 339 osc~ 440;
#X obj 94 69 import mrpeach;
#X obj 266 63 udpreceive 1337;
#X obj 266 92 unpackOSC;
#X obj 266 117 routeOSC /game/load /game/quit;
#N canvas 287 217 551 619 env 0;
#X obj 39 15 inlet;
#X obj 39 467 outlet~;
#X obj 39 433 vline~;
#X msg 39 213 0 \, 1 \$1;
#X msg 234 385 0 \$1;
#X obj 264 317 * 500;
#X obj 69 81 * 500;
#X obj 110 263 pack;
#X obj 234 250 random 1000;
#X msg 110 284 \$2 \$1;
#X obj 139 158 * 500;
#X obj 110 199 max 10;
#X obj 39 124 max 10;
#X obj 234 362 max 10;
#X obj 39 35 bang;
#X obj 139 136 receive \$0-d;
#X obj 69 60 receive \$0-a;
#X obj 233 228 delay;
#X obj 264 297 receive \$0-r;
#X obj 234 341 float;
#X obj 234 271 delay;
#X obj 39 102 float;
#X obj 56 149 delay;
#X obj 110 180 float;
#X obj 132 241 receive \$0-s;
#X obj 357 119 vsl 10 32 0 1 0 1 \$0-a \$0-a a 0 -8 0 8 -262144 -1
-1 500 0;
#X obj 370 119 vsl 10 32 0 1 0 1 \$0-d \$0-d d 0 -8 0 8 -262144 -1
-1 1200 0;
#X obj 383 119 vsl 10 32 0 1 0 1 \$0-s \$0-s s 0 -8 0 8 -262144 -1
-1 1600 0;
#X obj 396 119 vsl 10 32 0 1 0 1 \$0-r \$0-r r 0 -8 0 8 -262144 -1
-1 600 0;
#X connect 0 0 14 0;
#X connect 2 0 1 0;
#X connect 3 0 2 0;
#X connect 4 0 2 0;
#X connect 5 0 19 1;
#X connect 6 0 21 1;
#X connect 7 0 9 0;
#X connect 8 0 20 0;
#X connect 9 0 2 0;
#X connect 10 0 23 1;
#X connect 11 0 7 0;
#X connect 11 0 17 0;
#X connect 12 0 3 0;
#X connect 12 0 22 0;
#X connect 13 0 4 0;
#X connect 14 0 21 0;
#X connect 15 0 10 0;
#X connect 16 0 6 0;
#X connect 17 0 8 0;
#X connect 18 0 5 0;
#X connect 19 0 13 0;
#X connect 20 0 19 0;
#X connect 21 0 12 0;
#X connect 22 0 23 0;
#X connect 23 0 11 0;
#X connect 24 0 7 1;
#X coords 0 -1 1 1 120 60 1 300 100;
#X restore 266 263 pd env;
#X obj 267 408 *~;
#X obj 266 153 t b b;
#X obj 206 113 bng 15 250 50 0 empty empty empty 17 7 0 10 -262144
-1 -1;
#X obj 282 370 *~ 0.5;
#X connect 3 0 12 0;
#X connect 5 0 6 0;
#X connect 6 0 7 0;
#X connect 7 0 10 0;
#X connect 7 1 2 0;
#X connect 8 0 9 0;
#X connect 9 0 0 1;
#X connect 9 0 0 0;
#X connect 10 0 8 0;
#X connect 10 1 1 0;
#X connect 11 0 10 0;
#X connect 12 0 9 1;
