#N canvas 203 98 1442 867 10;
#X declare -lib mrpeach;
#X obj 369 95 loadbang;
#X obj 130 450 phrase4 \$0-mono-1;
#X obj 110 589 phrase4 \$0-mono-2;
#X obj 91 728 phrase4 \$0-mono-3;
#X obj 373 409 r phrase-1;
#X obj 353 561 r phrase-2;
#X obj 334 699 r phrase-3;
#X obj 866 364 metro;
#X obj 893 335 * 4;
#X obj 91 271 r \$0-play;
#X obj 91 423 t b b b;
#X obj 866 194 r \$0-metro;
#N canvas 939 196 380 683 intro 0;
#X obj 36 62 inlet start;
#X obj 36 254 bng 15 250 50 0 empty empty empty 17 7 0 10 -262144 -1
-1;
#X obj 49 233 bng 15 250 50 0 empty empty empty 17 7 0 10 -262144 -1
-1;
#X obj 62 212 bng 15 250 50 0 empty empty empty 17 7 0 10 -262144 -1
-1;
#X obj 75 191 bng 15 250 50 0 empty empty empty 17 7 0 10 -262144 -1
-1;
#X msg 75 395 \; phrase-1 100 67 0 0 0 0 0 0 \; phrase-2 0 0 0 0 0
0 0 0 \; phrase-3 100 55 0 0 0 0 0 0;
#X msg 62 469 \; phrase-1 100 79 0 0 0 0 0 0 \; phrase-2 100 71 0 0
0 0 0 0 \; phrase-3 100 67 0 0 0 0 0 0;
#X msg 36 614 \; phrase-1 100 76 100 76 0 0 100 76 \; phrase-2 100
66 100 66 0 0 100 66 \; phrase-3 100 50 100 50 0 0 100 50;
#X msg 49 542 \; phrase-1 0 0 100 72 100 76 0 0 \; phrase-2 0 0 100
66 100 66 0 0 \; phrase-3 0 0 100 50 100 50 0 0;
#X obj 36 141 cycle 4;
#X msg 36 98 foo;
#X obj 75 305 t b b;
#X obj 102 364 s \$0-part;
#X msg 102 333 1;
#X obj 178 72 inlet reset;
#X msg 178 107 set 0;
#X connect 0 0 10 0;
#X connect 1 0 7 0;
#X connect 2 0 8 0;
#X connect 3 0 6 0;
#X connect 4 0 11 0;
#X connect 9 0 1 0;
#X connect 9 1 2 0;
#X connect 9 2 3 0;
#X connect 9 3 4 0;
#X connect 10 0 9 0;
#X connect 11 0 5 0;
#X connect 11 1 13 0;
#X connect 13 0 12 0;
#X connect 14 0 15 0;
#X connect 15 0 9 0;
#X coords 0 -1 1 1 80 120 1 25 160;
#X restore 893 502 pd intro;
#X obj 866 655 s \$0-play;
#X obj 866 397 t b b;
#N canvas 716 201 386 788 part-1a 0;
#X obj 36 62 inlet start;
#X obj 36 254 bng 15 250 50 0 empty empty empty 17 7 0 10 -262144 -1
-1;
#X obj 49 233 bng 15 250 50 0 empty empty empty 17 7 0 10 -262144 -1
-1;
#X obj 62 212 bng 15 250 50 0 empty empty empty 17 7 0 10 -262144 -1
-1;
#X obj 75 191 bng 15 250 50 0 empty empty empty 17 7 0 10 -262144 -1
-1;
#X obj 36 141 cycle 4;
#X msg 36 98 foo;
#X msg 36 614 \; phrase-1 100 72 0 0 0 0 100 67 \; phrase-2 100 64
0 0 0 0 100 60 \; phrase-3 100 55 0 0 0 0 100 52;
#X msg 49 542 \; phrase-1 0 0 0 0 100 64 0 0 \; phrase-2 0 0 0 0 100
55 0 0 \; phrase-3 0 0 0 0 100 48 0 0;
#X msg 62 469 \; phrase-1 0 0 100 69 0 0 100 71 \; phrase-2 0 0 100
60 0 0 100 62 \; phrase-3 0 0 100 53 0 0 100 55;
#X msg 75 395 \; phrase-1 0 0 100 70 100 69 0 0 \; phrase-2 0 0 100
61 100 60 0 0 \; phrase-3 0 0 100 54 100 53 0 0;
#X obj 75 305 t b b;
#X obj 102 364 s \$0-part;
#X msg 102 333 2;
#X obj 168 62 inlet reset;
#X msg 168 97 set 0;
#X connect 0 0 6 0;
#X connect 1 0 7 0;
#X connect 2 0 8 0;
#X connect 3 0 9 0;
#X connect 4 0 11 0;
#X connect 5 0 1 0;
#X connect 5 1 2 0;
#X connect 5 2 3 0;
#X connect 5 3 4 0;
#X connect 6 0 5 0;
#X connect 11 0 10 0;
#X connect 11 1 13 0;
#X connect 13 0 12 0;
#X connect 14 0 15 0;
#X connect 15 0 5 0;
#X coords 0 -1 1 1 80 120 1 25 160;
#X restore 1003 499 pd part-1a;
#X obj 974 409 r \$0-part;
#X msg 944 278 0;
#N canvas 973 268 436 383 synth 0;
#X obj -230 164 vsl 10 32 0 1000 0 1 attack attack a 0 -8 0 8 -262144
-1 -1 310 0;
#X obj -217 164 vsl 10 32 0 1000 0 1 decay decay d 0 -8 0 8 -262144
-1 -1 1550 0;
#X obj -204 164 vsl 10 32 0 1 0 1 sustain sustain s 0 -8 0 8 -262144
-1 -1 1550 0;
#X obj -191 164 vsl 10 32 0 1000 0 1 release release r 0 -8 0 8 -262144
-1 -1 310 0;
#X obj -309 154 loadbang;
#X obj -296 118 bng 15 250 50 0 empty empty empty 17 7 0 10 -262144
-1 -1;
#X obj -483 225 +~;
#X obj -469 196 monophonic 1 osc~;
#X obj -482 135 monophonic 2 osc~;
#X obj -469 163 r \$0-mono-1;
#X obj -482 101 r \$0-mono-2;
#X obj -509 37 r \$0-mono-3;
#X obj -509 71 monophonic 3 osc~;
#X obj -508 258 +~;
#X obj -509 314 dac~;
#X obj -509 283 *~;
#X msg -329 212 0.1;
#X msg -252 236 \; attack 100 \; decay 500 \; sustain 0.5 \; release
100 \;;
#X connect 4 0 17 0;
#X connect 4 0 16 0;
#X connect 5 0 4 0;
#X connect 6 0 13 1;
#X connect 7 0 6 1;
#X connect 8 0 6 0;
#X connect 9 0 7 0;
#X connect 10 0 8 0;
#X connect 11 0 12 0;
#X connect 12 0 13 0;
#X connect 13 0 15 0;
#X connect 15 0 14 1;
#X connect 15 0 14 0;
#X connect 16 0 15 1;
#X restore 147 23 pd synth;
#X obj 893 300 r tempo;
#X obj 396 206 s tempo;
#X obj 204 407 r tempo;
#X obj 534 430 phrase3 \$0-mono-1;
#X obj 91 344 demux 1 2;
#X obj 142 308 r \$0-phrase-type;
#X obj 495 384 t b b b;
#X obj 573 306 r tempo;
#X obj 727 404 r phrase-1;
#X obj 514 580 phrase3 \$0-mono-2;
#X obj 707 550 r phrase-2;
#X obj 369 130 t b b;
#X obj 866 226 t a b;
#X obj 971 369 s \$0-phrase-type;
#X obj 573 349 * 4;
#X obj 573 383 / 3;
#X obj 495 730 phrase3 \$0-mono-3;
#X obj 688 699 r phrase-3;
#N canvas 853 102 462 898 part-1b 0;
#X obj 36 62 inlet start;
#X obj 36 254 bng 15 250 50 0 empty empty empty 17 7 0 10 -262144 -1
-1;
#X obj 49 233 bng 15 250 50 0 empty empty empty 17 7 0 10 -262144 -1
-1;
#X obj 62 212 bng 15 250 50 0 empty empty empty 17 7 0 10 -262144 -1
-1;
#X obj 75 191 bng 15 250 50 0 empty empty empty 17 7 0 10 -262144 -1
-1;
#X obj 36 141 cycle 4;
#X msg 36 98 foo;
#X obj 49 513 t b b;
#X obj 76 565 s \$0-phrase-type;
#X obj 36 669 t b b;
#X msg 63 695 1;
#X obj 63 721 s \$0-phrase-type;
#X msg 76 539 0;
#X msg 36 744 \; phrase-1 50 67 50 76 50 79 \; phrase-2 50 60 50 67
50 71 \; phrase-3 50 52 50 60 50 64;
#X obj 75 292 t b b;
#X obj 102 351 s \$0-part;
#X msg 102 320 1;
#X msg 49 594 \; phrase-1 100 81 0 0 100 77 100 79 \; phrase-2 100
72 0 0 100 69 100 71 \; phrase-3 100 65 0 0 100 62 100 64;
#X msg 62 449 \; phrase-1 0 0 100 76 0 0 100 72 \; phrase-2 0 0 100
69 0 0 100 64 \; phrase-3 0 0 100 60 0 0 100 57;
#X msg 75 375 \; phrase-1 100 74 100 71 0 0 0 0 \; phrase-2 100 65
100 62 0 0 0 0 \; phrase-3 100 59 100 55 0 0 0 0;
#X obj 188 62 inlet reset;
#X msg 188 97 set 0;
#X connect 0 0 6 0;
#X connect 1 0 9 0;
#X connect 2 0 7 0;
#X connect 3 0 18 0;
#X connect 4 0 14 0;
#X connect 5 0 1 0;
#X connect 5 1 2 0;
#X connect 5 2 3 0;
#X connect 5 3 4 0;
#X connect 6 0 5 0;
#X connect 7 0 17 0;
#X connect 7 1 12 0;
#X connect 9 0 13 0;
#X connect 9 1 10 0;
#X connect 10 0 11 0;
#X connect 12 0 8 0;
#X connect 14 0 19 0;
#X connect 14 1 16 0;
#X connect 16 0 15 0;
#X connect 20 0 21 0;
#X connect 21 0 5 0;
#X coords 0 -1 1 1 80 120 1 25 160;
#X restore 1117 500 pd part-1b;
#X msg 396 174 150;
#X obj 893 440 demux 1 2 3;
#N canvas 703 153 572 545 osc-listener 0;
#X msg 96 429 \; pd dsp 1;
#X obj 96 53 udpreceive 1337;
#X obj 96 82 unpackOSC;
#X obj 218 207 bng 15 250 50 0 empty empty empty 17 7 0 10 -262144
-1 -1;
#X msg 154 385 \; pd dsp 0;
#X obj 218 263 s \$0-metro;
#X msg 218 235 stop;
#X obj 157 207 bng 15 250 50 0 empty empty empty 17 7 0 10 -262144
-1 -1;
#X obj 157 303 s \$0-metro;
#X obj 37 23 import mrpeach;
#X obj 96 119 routeOSC /game /level;
#X obj 96 348 routeOSC /load /quit;
#X obj 157 154 routeOSC /start /stop;
#X connect 1 0 2 0;
#X connect 2 0 10 0;
#X connect 3 0 6 0;
#X connect 6 0 5 0;
#X connect 7 0 8 0;
#X connect 10 0 11 0;
#X connect 10 1 12 0;
#X connect 11 0 0 0;
#X connect 11 1 4 0;
#X connect 12 0 7 0;
#X connect 12 1 3 0;
#X coords 0 -1 1 1 110 50 1 140 180;
#X restore 570 145 pd osc-listener;
#X obj 944 333 t i i b;
#X connect 0 0 30 0;
#X connect 4 0 1 2;
#X connect 5 0 2 2;
#X connect 6 0 3 2;
#X connect 7 0 14 0;
#X connect 8 0 7 1;
#X connect 9 0 23 0;
#X connect 10 0 3 0;
#X connect 10 1 2 0;
#X connect 10 2 1 0;
#X connect 11 0 31 0;
#X connect 14 0 13 0;
#X connect 14 1 39 0;
#X connect 16 0 39 1;
#X connect 17 0 41 0;
#X connect 19 0 8 0;
#X connect 21 0 1 1;
#X connect 21 0 2 1;
#X connect 21 0 3 1;
#X connect 23 0 10 0;
#X connect 23 1 25 0;
#X connect 24 0 23 1;
#X connect 25 0 35 0;
#X connect 25 1 28 0;
#X connect 25 2 22 0;
#X connect 26 0 33 0;
#X connect 27 0 22 2;
#X connect 29 0 28 2;
#X connect 30 1 38 0;
#X connect 31 0 7 0;
#X connect 31 1 17 0;
#X connect 33 0 34 0;
#X connect 34 0 22 1;
#X connect 34 0 28 1;
#X connect 34 0 35 1;
#X connect 36 0 35 2;
#X connect 38 0 20 0;
#X connect 39 0 12 0;
#X connect 39 1 15 0;
#X connect 39 2 37 0;
#X connect 41 0 39 1;
#X connect 41 0 12 1;
#X connect 41 1 32 0;
#X connect 41 1 15 1;
#X connect 41 2 37 1;
