#N canvas 1052 258 677 598 10;
#X declare -lib mrpeach;
#X obj 233 480 dac~;
#X msg 293 185 \; pd dsp 1;
#X msg 354 148 \; pd dsp 0;
#X obj 94 69 import mrpeach;
#X obj 266 63 udpreceive 1337;
#X obj 266 92 unpackOSC;
#X obj 266 117 routeOSC /game/load /game/quit;
#X obj 266 153 t b b;
#X obj 206 113 bng 15 250 50 0 empty empty empty 17 7 0 10 -262144
-1 -1;
#X obj 499 251 vsl 10 32 0 1 0 1 attack attack a 0 -8 0 8 -262144 -1
-1 3100 0;
#X obj 512 251 vsl 10 32 0 1 0 1 decay decay d 0 -8 0 8 -262144 -1
-1 3100 0;
#X obj 525 251 vsl 10 32 0 1 0 1 sustain sustain s 0 -8 0 8 -262144
-1 -1 1550 0;
#X obj 538 251 vsl 10 32 0 1 0 1 release release r 0 -8 0 8 -262144
-1 -1 3100 0;
#X msg 477 323 \; attack 100 \; decay 500 \; sustain 0.5 \; release
500 \;;
#X obj 420 241 loadbang;
#X obj 433 205 bng 15 250 50 0 empty empty empty 17 7 0 10 -262144
-1 -1;
#X obj 285 439 *~;
#X msg 351 402 0.5;
#X msg 306 308 500;
#X msg 360 292 64;
#X msg 195 333 500;
#X obj 266 242 t b b b b;
#X obj 159 295 t b b b b;
#X obj 194 270 delay 200;
#X obj 268 395 +~;
#X obj 286 352 monophonic 1;
#X obj 158 365 monophonic 2;
#X msg 231 321 67;
#X connect 4 0 5 0;
#X connect 5 0 6 0;
#X connect 6 0 7 0;
#X connect 6 1 2 0;
#X connect 7 0 21 0;
#X connect 7 1 1 0;
#X connect 8 0 7 0;
#X connect 14 0 13 0;
#X connect 14 0 17 0;
#X connect 15 0 14 0;
#X connect 16 0 0 1;
#X connect 16 0 0 0;
#X connect 17 0 16 1;
#X connect 18 0 25 1;
#X connect 19 0 25 2;
#X connect 20 0 26 1;
#X connect 21 0 23 0;
#X connect 21 1 25 0;
#X connect 21 2 18 0;
#X connect 21 3 19 0;
#X connect 22 1 26 0;
#X connect 22 2 20 0;
#X connect 22 3 27 0;
#X connect 23 0 22 0;
#X connect 24 0 16 0;
#X connect 25 0 24 1;
#X connect 26 0 24 0;
#X connect 27 0 26 2;
