#N canvas 591 267 551 441 10;
#X declare -lib mrpeach;
#X obj 113 293 dac~;
#X obj 114 225 *~ 0.05;
#X msg 266 157 \; pd dsp 1;
#X msg 354 158 \; pd dsp 0;
#X obj 113 185 osc~ 440;
#X obj 94 69 import mrpeach;
#X obj 266 63 udpreceive 1337;
#X obj 266 92 unpackOSC;
#X obj 266 117 routeOSC /game/load /game/quit;
#X connect 1 0 0 1;
#X connect 1 0 0 0;
#X connect 4 0 1 0;
#X connect 6 0 7 0;
#X connect 7 0 8 0;
#X connect 8 0 2 0;
#X connect 8 1 3 0;
